<svg xmlns="http://www.w3.org/2000/svg" xmlns:xlink="http://www.w3.org/1999/xlink" x="0" y="0" version="1.1" viewBox="0 0 1000 1000" xml:space="preserve"><style type="text/css">.st0{fill:url(#XMLID_4_)}.st1{fill:url(#XMLID_5_)}.st2{fill:url(#XMLID_8_)}.st3{fill:url(#XMLID_9_)}.st4{fill:url(#XMLID_11_)}.st5{opacity:.3;fill:url(#XMLID_16_)}</style><g id="XMLID_14_"><linearGradient id="XMLID_4_" x1="444.469" x2="598.469" y1="526.051" y2="562.051" gradientUnits="userSpaceOnUse"><stop offset="0" style="stop-color:#ff6533"/><stop offset=".157" style="stop-color:#ff5633"/><stop offset=".434" style="stop-color:#ff4333"/><stop offset=".714" style="stop-color:#ff3733"/><stop offset="1" style="stop-color:#f33"/></linearGradient><path id="XMLID_15_" d="M721,410c0-33.6-8.8-65.1-24.3-92.4c-41.1-42.3-130.5-52.1-152.7-0.2 c-22.8,53.2,38.3,112.4,65,107.7c34-6-6-84-6-84c52,98,40,68-54,158S359,779,345,787c-0.6,0.4-1.2,0.7-1.9,1h368.7 c6.5,0,10.7-6.9,7.8-12.7l-96.4-190.8c-2.1-4.1-0.6-9.2,3.4-11.5C683,540.6,721,479.8,721,410z" class="st0"/></g><g id="XMLID_2_"><linearGradient id="XMLID_5_" x1="420.382" x2="696.383" y1="475.002" y2="689.002" gradientUnits="userSpaceOnUse"><stop offset="0" style="stop-color:#bf3338"/><stop offset="1" style="stop-color:#f33"/></linearGradient><path id="XMLID_10_" d="M721,410c0-33.6-8.8-65.1-24.3-92.4c-41.1-42.3-130.5-52.1-152.7-0.2 c-22.8,53.2,38.3,112.4,65,107.7c34-6-6-84-6-84c52,98,40,68-54,158S359,779,345,787c-0.6,0.4-1.2,0.7-1.9,1h368.7 c6.5,0,10.7-6.9,7.8-12.7l-96.4-190.8c-2.1-4.1-0.6-9.2,3.4-11.5C683,540.6,721,479.8,721,410z" class="st1"/></g><linearGradient id="XMLID_8_" x1="429.386" x2="469.386" y1="517.156" y2="559.156" gradientUnits="userSpaceOnUse"><stop offset="0" style="stop-color:#ff6533"/><stop offset=".157" style="stop-color:#ff5633"/><stop offset=".434" style="stop-color:#ff4333"/><stop offset=".714" style="stop-color:#ff3733"/><stop offset="1" style="stop-color:#f33"/></linearGradient><path id="XMLID_3_" d="M345,787c14-8,110-198,204-288s106-60,54-158c0,0-199,279-271,417" class="st2"/><g id="XMLID_7_"><linearGradient id="XMLID_9_" x1="502.111" x2="490.111" y1="589.457" y2="417.457" gradientUnits="userSpaceOnUse"><stop offset="0" style="stop-color:#ff6533"/><stop offset=".157" style="stop-color:#ff5633"/><stop offset=".434" style="stop-color:#ff4333"/><stop offset=".714" style="stop-color:#ff3733"/><stop offset="1" style="stop-color:#f33"/></linearGradient><path id="XMLID_12_" d="M373,537c134.4-247.1,152-272,222-272c36.8,0,73.9,16.6,97.9,46.1c-32.7-52.7-90.6-88-156.9-89 v0H307.7c-4.8,0-8.7,3.9-8.7,8.7V412v186v93C312.6,655.9,335.7,605.7,373,537z" class="st3"/></g><linearGradient id="XMLID_11_" x1="450.125" x2="506.943" y1="514.209" y2="552.846" gradientUnits="userSpaceOnUse"><stop offset="0" style="stop-color:#fbb040"/><stop offset="1" style="stop-color:#fb8840"/></linearGradient><path id="XMLID_6_" d="M549,499c-94,90-190,280-204,288s-37.5,9-50-5c-13.3-14.9-34-39,78-245	c134.4-247.1,152-272,222-272c36.8,0,73.9,16.6,97.9,46.1c1.3,2.1,2.6,4.3,3.9,6.5c-41.1-42.3-130.5-52.1-152.7-0.2	c-22.8,53.2,38.3,112.4,65,107.7c34-6-6-84-6-84C655,439,643,409,549,499z" class="st4"/><linearGradient id="XMLID_16_" x1="508.333" x2="450.333" y1="295.758" y2="933.758" gradientUnits="userSpaceOnUse"><stop offset="0" style="stop-color:#fff"/><stop offset="1" style="stop-color:#fff;stop-opacity:0"/></linearGradient><path id="XMLID_13_" d="M384,548c134.4-247.1,152-272,222-272c30.3,0,60.8,11.3,84,31.7c-24-27.4-59.6-42.7-95-42.7	c-70,0-87.6,24.9-222,272c-112,206-91.3,230.1-78,245c1.9,2.1,4.1,3.9,6.4,5.4C289.7,770.4,284.5,730.9,384,548z" class="st5"/></svg>